# xmcd
#
# Track frame offsets:
#       150
#       14155
#       35530
#       58072
#       73637
#       100302
#       115982
#       139857
#       151087
#       168822
#       185089
#       197646
#       219256
#
# Disc length: 3157 seconds
#
# Revision: 0
# Processed by: cddbd v1.4PL0 Copyright (c) Steve Scherf et al.
# Submitted via: CD-DA_X-Tractor v0.23
#
DISCID=b90c530d
DTITLE=Walter Ferguson - Babylon
DYEAR=2002
DGENRE=Calypso
TTITLE0=Callaloo
TTITLE1=Cabin in the Wata
TTITLE2=Babylon
TTITLE3=River Bank
TTITLE4=Bombero
TTITLE5=Carnaval Day
TTITLE6=Confusion
TTITLE7=Lock me Door
TTITLE8=Everybody Laughing
TTITLE9=Soldier
TTITLE10=Master of Calypso
TTITLE11=Serenade
TTITLE12=Monilla
EXTD=
EXTT0=
EXTT1=
EXTT2=
EXTT3=
EXTT4=
EXTT5=
EXTT6=
EXTT7=
EXTT8=
EXTT9=
EXTT10=
EXTT11=
EXTT12=
PLAYORDER=
